<?xml version="1.0" standalone="no"?>
<!DOCTYPE svg PUBLIC "-//W3C//DTD SVG 20010904//EN"
 "http://www.w3.org/TR/2001/REC-SVG-20010904/DTD/svg10.dtd">
<svg version="1.0" xmlns="http://www.w3.org/2000/svg"
 width="417.000000pt" height="406.000000pt" viewBox="0 0 417.000000 406.000000"
 preserveAspectRatio="xMidYMid meet">

<g transform="translate(0.000000,406.000000) scale(0.100000,-0.100000)"
fill="#000000" stroke="none">
<path d="M1795 4014 c-917 -139 -1615 -823 -1740 -1707 -19 -132 -19 -422 0
-554 24 -173 84 -381 150 -526 26 -55 28 -57 58 -53 139 23 494 60 692 73 66
4 107 9 90 10 -415 38 -740 291 -861 672 -35 109 -55 242 -36 241 4 -1 23 -23
42 -51 82 -116 438 -373 725 -524 173 -90 245 -153 296 -257 12 -26 26 -45 31
-42 23 15 0 198 -34 271 -11 24 -18 47 -14 51 24 23 91 -87 101 -166 10 -75
17 -81 31 -27 21 77 36 230 32 318 -4 102 13 112 33 20 30 -143 10 -361 -42
-464 l-18 -36 242 -6 c277 -7 472 -30 657 -76 496 -125 918 -327 1159 -557
l91 -86 88 89 c48 48 113 120 144 158 65 81 158 215 158 227 0 4 -24 8 -52 8
-104 0 -188 42 -267 132 -18 21 -66 88 -106 150 -151 231 -155 234 -282 196
-66 -19 -103 -23 -243 -24 -176 -1 -177 -2 -315 -62 -93 -40 -161 -57 -182
-44 -8 5 5 17 35 34 49 27 186 147 178 155 -2 2 -32 -15 -66 -38 -83 -56 -192
-100 -266 -106 -53 -5 -66 -2 -100 20 -22 13 -54 41 -72 61 -31 35 -32 41 -32
120 0 91 20 145 81 214 29 33 61 81 98 145 10 18 64 113 121 212 100 177 130
224 224 357 27 39 63 110 85 168 37 98 58 132 94 151 14 8 29 2 65 -23 62 -45
95 -58 143 -58 77 0 120 38 195 173 55 100 100 157 157 198 68 49 124 31 170
-54 18 -35 22 -58 22 -137 0 -84 -3 -101 -27 -146 -29 -55 -106 -131 -160
-157 -31 -15 -31 -17 -8 -16 14 0 48 8 75 17 l50 17 120 -48 c241 -97 314
-118 403 -115 l80 3 -29 97 c-220 743 -866 1285 -1670 1402 -133 20 -466 20
-594 0z m766 -725 c25 -10 84 -27 130 -39 100 -26 252 -76 294 -98 88 -45 138
-114 138 -190 0 -39 -4 -49 -36 -79 -32 -28 -44 -33 -87 -33 -50 0 -53 2 -138
83 -50 47 -132 110 -192 147 -58 35 -124 82 -148 104 -51 47 -96 120 -88 141
5 14 10 14 43 -1 21 -9 59 -25 84 -35z m-108 -278 c53 -26 134 -61 180 -76
l83 -28 -36 -68 c-19 -38 -38 -69 -42 -69 -16 0 -154 92 -205 135 -75 65 -124
155 -84 155 5 0 52 -22 104 -49z m-1776 -16 c21 -9 40 -20 44 -26 5 -9 -6
-107 -13 -114 -2 -2 -41 0 -88 4 l-85 6 -3 54 c-2 39 1 58 14 72 21 24 80 25
131 4z m143 -88 l64 -43 1 -117 c0 -100 -2 -116 -15 -111 -42 17 -102 25 -161
21 l-67 -4 -47 89 c-26 49 -45 92 -42 94 10 11 133 -18 159 -37 15 -10 29 -19
31 -19 3 0 2 38 -1 85 -3 51 -1 85 5 85 5 0 38 -19 73 -43z m269 -236 l71 -80
-22 -43 c-14 -26 -24 -66 -26 -105 -3 -35 -6 -63 -8 -63 -2 0 -23 10 -46 23
-36 19 -59 22 -145 22 -89 0 -105 3 -122 20 -29 30 -131 176 -131 187 0 7 27
9 73 6 74 -5 168 -39 211 -76 18 -16 19 -16 12 3 -37 94 -46 135 -46 202 l0
75 54 -46 c29 -25 85 -82 125 -125z m133 -163 c25 -35 61 -91 82 -126 l38 -63
-26 -37 c-35 -52 -56 -105 -56 -147 0 -19 -3 -35 -7 -35 -5 0 -28 14 -52 30
-56 38 -101 50 -157 43 -50 -6 -41 -14 -146 126 -32 42 -58 82 -58 89 0 7 15
13 38 14 116 4 166 -16 237 -95 58 -65 65 -62 40 19 -22 72 -19 144 10 232 7
19 11 16 57 -50z m-887 -27 c25 -5 31 -12 36 -46 4 -22 12 -51 17 -65 9 -24 8
-25 -72 -42 -110 -23 -109 -23 -135 23 -27 48 -22 100 12 124 22 15 86 18 142
6z m197 -63 c42 -16 78 -32 80 -36 2 -4 23 -18 48 -31 80 -43 162 -111 155
-130 -20 -52 -16 -129 10 -193 5 -14 -1 -16 -42 -17 -26 0 -74 -9 -105 -20
-32 -11 -77 -23 -102 -26 -44 -7 -44 -7 -121 66 l-76 73 48 19 c40 16 66 18
150 15 57 -3 105 -3 108 0 3 3 -9 29 -26 59 -17 30 -35 66 -39 81 -7 22 -8 23
-9 6 -1 -12 6 -41 14 -64 8 -23 15 -44 15 -46 0 -2 -33 -4 -73 -4 -41 0 -96
-7 -123 -15 -86 -26 -95 -23 -157 54 l-56 70 31 10 c39 14 102 14 151 0 22 -6
41 -8 43 -6 3 2 -9 27 -26 54 -17 27 -33 66 -37 87 l-6 38 34 -7 c19 -4 69
-20 111 -37z m851 -205 c31 -78 47 -155 42 -198 -11 -92 -54 -165 -98 -165
-46 0 -143 89 -260 239 l-48 61 38 0 c63 0 139 -44 191 -111 25 -33 46 -59 48
-59 1 0 0 40 -3 88 -4 58 -1 102 7 128 14 45 37 84 49 84 4 0 20 -30 34 -67z
m-528 -3 c3 -5 44 -42 91 -80 l84 -71 -20 -39 c-15 -29 -21 -61 -21 -113 l-1
-73 -56 4 c-35 2 -85 -4 -129 -16 l-72 -18 -83 64 c-46 35 -84 67 -86 70 -3
10 109 33 188 39 61 5 91 -2 152 -35 3 -2 -11 32 -33 75 -40 80 -51 126 -42
176 6 28 17 35 28 17z m223 -211 c116 -129 167 -319 96 -365 -41 -28 -118 -11
-242 53 -125 64 -172 92 -172 102 0 4 22 13 50 19 58 14 143 1 203 -30 21 -10
41 -18 43 -16 2 2 -8 26 -21 53 -19 36 -25 64 -25 111 0 58 12 114 25 114 3 0
22 -19 43 -41z"/>
<path d="M2718 2393 c-35 -14 -51 -33 -28 -33 6 0 10 -20 10 -45 l0 -45 43 0
c54 0 133 38 131 63 -1 9 3 17 8 17 19 0 -15 31 -50 46 -43 18 -67 17 -114 -3z"/>
<path d="M3495 2080 c4 -19 9 -86 12 -148 6 -129 -8 -191 -58 -254 -32 -41
-26 -47 24 -23 109 52 127 226 42 405 -22 48 -25 51 -20 20z"/>
<path d="M2271 1685 c-2 -41 -55 -63 -68 -29 -8 22 -23 -2 -23 -38 0 -39 33
-55 66 -33 32 21 45 56 34 92 -6 21 -8 23 -9 8z"/>
<path d="M1052 1130 c-210 -15 -684 -79 -701 -96 -2 -2 11 -24 30 -49 39 -52
16 -50 234 -21 406 56 896 43 1270 -34 459 -94 858 -290 1141 -562 45 -43 85
-78 90 -78 16 0 164 94 164 104 0 16 -171 179 -258 245 -344 260 -798 426
-1317 481 -141 14 -507 20 -653 10z"/>
<path d="M1130 843 c-182 -10 -574 -64 -592 -82 -4 -4 4 -24 19 -44 20 -29 32
-37 48 -33 11 3 74 13 140 23 153 23 669 26 810 5 490 -74 855 -242 1138 -525
l59 -59 78 28 79 27 -31 41 c-55 72 -183 190 -280 259 -370 264 -891 392
-1468 360z"/>
<path d="M1090 549 c-52 -4 -148 -15 -214 -25 l-119 -18 32 -28 c25 -22 39
-28 59 -24 55 11 250 26 347 26 456 0 846 -131 1097 -368 l73 -69 58 19 57 20
-40 47 c-21 27 -63 68 -92 93 -298 253 -744 369 -1258 327z"/>
</g>
</svg>
